<?xml version="1.0" encoding="UTF-8" standalone="no"?>
<!-- Created with Inkscape (http://www.inkscape.org/) -->

<svg
   xmlns:dc="http://purl.org/dc/elements/1.1/"
   xmlns:cc="http://creativecommons.org/ns#"
   xmlns:rdf="http://www.w3.org/1999/02/22-rdf-syntax-ns#"
   xmlns:svg="http://www.w3.org/2000/svg"
   xmlns="http://www.w3.org/2000/svg"
   xmlns:xlink="http://www.w3.org/1999/xlink"
   xmlns:sodipodi="http://sodipodi.sourceforge.net/DTD/sodipodi-0.dtd"
   xmlns:inkscape="http://www.inkscape.org/namespaces/inkscape"
   width="135.46666mm"
   height="135.46666mm"
   viewBox="0 0 135.46665 135.46666"
   version="1.1"
   id="svg8"
   sodipodi:docname="icon-2.svg"
   inkscape:version="0.92.4 (5da689c313, 2019-01-14)">
  <defs
     id="defs2">
    <clipPath
       clipPathUnits="userSpaceOnUse"
       id="clipPath16">
      <path
         d="M 0,192 H 192 V 0 H 0 Z"
         id="path18"
         inkscape:connector-curvature="0" />
    </clipPath>
    <clipPath
       clipPathUnits="userSpaceOnUse"
       id="clipPath26">
      <path
         d="M -4.88281e-4,192 H 192 V -4.88281e-4 H -4.88281e-4 Z"
         id="path28"
         inkscape:connector-curvature="0" />
    </clipPath>
    <clipPath
       clipPathUnits="userSpaceOnUse"
       id="clipPath34">
      <path
         d="M -4.88281e-4,192 H 192 V -4.88281e-4 H -4.88281e-4 Z"
         id="path36"
         inkscape:connector-curvature="0" />
    </clipPath>
    <clipPath
       clipPathUnits="userSpaceOnUse"
       id="clipPath38">
      <path
         d="M 0,192 H 192 V 0 H 0 Z"
         id="path40"
         inkscape:connector-curvature="0" />
    </clipPath>
    <clipPath
       clipPathUnits="userSpaceOnUse"
       id="clipPath42">
      <path
         d="M 0,192 H 192 V 0 H 0 Z"
         id="path44"
         inkscape:connector-curvature="0" />
    </clipPath>
    <clipPath
       clipPathUnits="userSpaceOnUse"
       id="clipPath116">
      <path
         d="M 0,192 H 192 V -4.88281e-4 H 0 Z"
         id="path118"
         inkscape:connector-curvature="0" />
    </clipPath>
    <clipPath
       clipPathUnits="userSpaceOnUse"
       id="clipPath120">
      <path
         d="M 0,192 H 192 V 4.88281e-4 H 0 Z"
         id="path122"
         inkscape:connector-curvature="0" />
    </clipPath>
    <clipPath
       clipPathUnits="userSpaceOnUse"
       id="clipPath124">
      <path
         d="M 192,192 H 0 V 0 h 192 z"
         id="path126"
         inkscape:connector-curvature="0" />
    </clipPath>
    <linearGradient
       id="linearGradient4384"
       inkscape:collect="always">
      <stop
         id="stop4380"
         offset="0"
         style="stop-color:#3ab0f4;stop-opacity:1" />
      <stop
         id="stop4382"
         offset="1"
         style="stop-color:#0d41f2;stop-opacity:1" />
    </linearGradient>
    <linearGradient
       inkscape:collect="always"
       xlink:href="#linearGradient4384"
       id="linearGradient6197"
       gradientUnits="userSpaceOnUse"
       gradientTransform="matrix(0.26458333,0,0,0.26458333,43.926614,-182.49164)"
       x1="4057.7832"
       y1="-766.59149"
       x2="4057.7832"
       y2="-620.87726" />
  </defs>
  <sodipodi:namedview
     id="base"
     pagecolor="#3d3d3d"
     bordercolor="#666666"
     borderopacity="1.0"
     inkscape:pageopacity="0"
     inkscape:pageshadow="2"
     inkscape:zoom="0.49497474"
     inkscape:cx="249.95202"
     inkscape:cy="210.12801"
     inkscape:document-units="px"
     inkscape:current-layer="layer2"
     showgrid="false"
     units="mm"
     inkscape:showpageshadow="false"
     inkscape:window-width="1366"
     inkscape:window-height="705"
     inkscape:window-x="-8"
     inkscape:window-y="-8"
     inkscape:window-maximized="1"
     inkscape:object-paths="true"
     fit-margin-top="0"
     fit-margin-left="0"
     fit-margin-right="0"
     fit-margin-bottom="0" />
  <metadata
     id="metadata5">
    <rdf:RDF>
      <cc:Work
         rdf:about="">
        <dc:format>image/svg+xml</dc:format>
        <dc:type
           rdf:resource="http://purl.org/dc/dcmitype/StillImage" />
        <dc:title />
      </cc:Work>
    </rdf:RDF>
  </metadata>
  <g
     inkscape:groupmode="layer"
     id="layer2"
     inkscape:label="Layer 2"
     transform="translate(-37.266623,83.941707)">
    <g
       id="g6213"
       transform="translate(-3096.8706,254.98762)">
      <rect
         y="-338.92932"
         x="3134.1372"
         height="135.46666"
         width="135.46666"
         id="rect6205"
         style="opacity:0;fill:#ffffff;fill-opacity:1;fill-rule:nonzero;stroke:none;stroke-width:13.87294769;stroke-linecap:round;stroke-linejoin:round;stroke-miterlimit:4;stroke-dasharray:none;stroke-dashoffset:0;stroke-opacity:1;paint-order:fill markers stroke" />
      <g
         style="stroke-width:1.24443102"
         transform="matrix(3.0798646,0,0,3.0798646,-240.02719,856.16446)"
         id="g6211">
        <path
           style="opacity:1;fill:url(#linearGradient6197);fill-opacity:1;fill-rule:nonzero;stroke:none;stroke-width:9.87767124;stroke-linecap:round;stroke-linejoin:round;stroke-miterlimit:4;stroke-dasharray:none;stroke-dashoffset:0;stroke-opacity:1;paint-order:fill markers stroke"
           d="m 1107.1247,-385.28546 c -4.8862,0 -8.8196,3.93339 -8.8196,8.81962 v 20.8473 8.81962 h 8.8196 20.8473 c 4.8863,0 8.8197,-3.9334 8.8197,-8.81962 v -20.8473 -8.81962 h -8.8197 z m 27.0893,2.57762 c 0.153,0.15298 0.2989,0.31307 0.4403,0.47697 -0.1415,-0.16401 -0.2872,-0.32389 -0.4403,-0.47697 z"
           id="path6207"
           inkscape:connector-curvature="0" />
        <path
           inkscape:connector-curvature="0"
           id="path6209"
           d="m 1108.2453,-377.31903 a 2.067026,2.067026 0 0 0 -2.0359,2.09519 v 18.23237 a 2.067026,2.067026 0 0 0 1.1146,1.86097 2.067026,2.067026 0 0 0 2.6606,-0.26612 l 9.1085,-9.10798 v 2.10065 a 2.0670259,2.0670259 0 1 0 4.1339,0 v -7.05153 a 2.0670259,2.0670259 0 0 0 -2.0984,-2.09656 2.0670259,2.0670259 0 0 0 -0.021,0.002 2.0670259,2.0670259 0 0 0 -0.064,-0.002 h -7.052 a 2.0670259,2.0670259 0 1 0 0,4.13387 h 2.1677 l -5.8171,5.81757 v -13.62324 a 2.067026,2.067026 0 0 0 -2.0975,-2.09519 z m 5.6718,0.17999 a 2.067026,2.067026 0 1 0 0,4.13386 h 8.7699 c 1.1808,0 2.0669,0.88571 2.0669,2.06648 v 11.90992 h -3.7411 a 2.067026,2.067026 0 1 0 0,4.13341 h 5.6358 a 2.067026,2.067026 0 0 0 0.3116,-0.0214 2.067026,2.067026 0 0 0 1.9271,-2.09017 v -13.93174 c 0,-3.3993 -2.801,-6.20034 -6.2003,-6.20034 z"
           style="color:#000000;font-style:normal;font-variant:normal;font-weight:normal;font-stretch:normal;font-size:medium;line-height:normal;font-family:sans-serif;font-variant-ligatures:normal;font-variant-position:normal;font-variant-caps:normal;font-variant-numeric:normal;font-variant-alternates:normal;font-feature-settings:normal;text-indent:0;text-align:start;text-decoration:none;text-decoration-line:none;text-decoration-style:solid;text-decoration-color:#000000;letter-spacing:normal;word-spacing:normal;text-transform:none;writing-mode:lr-tb;direction:ltr;text-orientation:mixed;dominant-baseline:auto;baseline-shift:baseline;text-anchor:start;white-space:normal;shape-padding:0;clip-rule:nonzero;display:inline;overflow:visible;visibility:visible;opacity:1;isolation:auto;mix-blend-mode:normal;color-interpolation:sRGB;color-interpolation-filters:linearRGB;solid-color:#000000;solid-opacity:1;vector-effect:none;fill:#ffffff;fill-opacity:1;fill-rule:nonzero;stroke:none;stroke-width:9.87767124;stroke-linecap:round;stroke-linejoin:round;stroke-miterlimit:4;stroke-dasharray:none;stroke-dashoffset:0;stroke-opacity:1;paint-order:fill markers stroke;color-rendering:auto;image-rendering:auto;shape-rendering:auto;text-rendering:auto;enable-background:accumulate" />
      </g>
    </g>
  </g>
</svg>
